<mxfile host="drawio-plugin" modified="2021-04-19T13:05:21.152Z" agent="5.0 (Macintosh; Intel Mac OS X 10_15_7) AppleWebKit/537.36 (KHTML, like Gecko) Chrome/87.0.4280.141 Safari/537.36" etag="7XcDIwpyK6mNHZvalbPm" version="13.7.9" type="embed"><diagram name="main-concepts" id="dbhcRgVHBeku7B5ISOvR"><mxGraphModel dx="1772" dy="1111" grid="1" gridSize="10" guides="1" tooltips="1" connect="1" arrows="1" fold="1" page="0" pageScale="1" pageWidth="1654" pageHeight="1169" math="0" shadow="0"><root><mxCell id="AfYDgv51XlKC_8JGlRU4-0"/><mxCell id="AfYDgv51XlKC_8JGlRU4-1" parent="AfYDgv51XlKC_8JGlRU4-0"/><mxCell id="AfYDgv51XlKC_8JGlRU4-2" value="Encounter Detection on Mobile Device" style="rounded=0;whiteSpace=wrap;html=1;verticalAlign=top;fontStyle=1;fillColor=#d5e8d4;strokeColor=#82b366;" parent="AfYDgv51XlKC_8JGlRU4-1" vertex="1"><mxGeometry x="-538" y="285" width="694" height="379" as="geometry"/></mxCell><mxCell id="AfYDgv51XlKC_8JGlRU4-4" value="Submit Diagnosis Key (Upload) &lt;br&gt;from Device to Backend" style="rounded=0;whiteSpace=wrap;html=1;fontStyle=1;fillColor=#d5e8d4;strokeColor=#82b366;verticalAlign=top;" parent="AfYDgv51XlKC_8JGlRU4-1" vertex="1"><mxGeometry x="4" y="63" width="326" height="183" as="geometry"/></mxCell><mxCell id="AfYDgv51XlKC_8JGlRU4-5" value="Virology&amp;nbsp;Testing" style="rounded=0;whiteSpace=wrap;html=1;fontStyle=1;fillColor=#d5e8d4;strokeColor=#82b366;verticalAlign=top;" parent="AfYDgv51XlKC_8JGlRU4-1" vertex="1"><mxGeometry x="-274" y="61" width="171" height="151" as="geometry"/></mxCell><mxCell id="AfYDgv51XlKC_8JGlRU4-6" value="Retrieve Diagnosis Keys (Download as User) and provide to API on Mobile Device" style="rounded=0;whiteSpace=wrap;html=1;fontStyle=1;fillColor=#d5e8d4;strokeColor=#82b366;verticalAlign=top;" parent="AfYDgv51XlKC_8JGlRU4-1" vertex="1"><mxGeometry x="562" y="-89" width="747" height="515" as="geometry"/></mxCell><mxCell id="AfYDgv51XlKC_8JGlRU4-9" value="" style="edgeStyle=none;rounded=0;orthogonalLoop=1;jettySize=auto;html=1;exitX=1;exitY=0.25;exitDx=0;exitDy=0;entryX=0;entryY=0.5;entryDx=0;entryDy=0;" parent="AfYDgv51XlKC_8JGlRU4-1" source="AfYDgv51XlKC_8JGlRU4-134" target="AfYDgv51XlKC_8JGlRU4-131" edge="1"><mxGeometry relative="1" as="geometry"><mxPoint x="-171" y="526" as="targetPoint"/></mxGeometry></mxCell><mxCell id="AfYDgv51XlKC_8JGlRU4-182" value="derived from" style="edgeLabel;html=1;align=center;verticalAlign=middle;resizable=0;points=[];" parent="AfYDgv51XlKC_8JGlRU4-9" vertex="1" connectable="0"><mxGeometry x="-0.1002" y="2" relative="1" as="geometry"><mxPoint as="offset"/></mxGeometry></mxCell><mxCell id="AfYDgv51XlKC_8JGlRU4-10" value="Diagnosis Keys Storage &lt;br&gt;on Backend" style="rounded=0;whiteSpace=wrap;html=1;fontStyle=1;fillColor=#d5e8d4;strokeColor=#82b366;verticalAlign=top;" parent="AfYDgv51XlKC_8JGlRU4-1" vertex="1"><mxGeometry x="275" y="316" width="205" height="149" as="geometry"/></mxCell><mxCell id="AfYDgv51XlKC_8JGlRU4-11" value="" style="rounded=0;orthogonalLoop=1;jettySize=auto;html=1;entryX=1;entryY=0.5;entryDx=0;entryDy=0;exitX=0;exitY=0.5;exitDx=0;exitDy=0;dashed=1;" parent="AfYDgv51XlKC_8JGlRU4-1" source="AfYDgv51XlKC_8JGlRU4-10" target="AfYDgv51XlKC_8JGlRU4-131" edge="1"><mxGeometry relative="1" as="geometry"><mxPoint x="101" y="500.5" as="sourcePoint"/></mxGeometry></mxCell><mxCell id="AfYDgv51XlKC_8JGlRU4-12" value="" style="edgeStyle=none;rounded=0;orthogonalLoop=1;jettySize=auto;html=1;entryX=0.75;entryY=0;entryDx=0;entryDy=0;exitX=0.25;exitY=1;exitDx=0;exitDy=0;" parent="AfYDgv51XlKC_8JGlRU4-1" source="AfYDgv51XlKC_8JGlRU4-138" target="AfYDgv51XlKC_8JGlRU4-130" edge="1"><mxGeometry x="0.3396" y="12" relative="1" as="geometry"><mxPoint x="-97.93132530120465" y="511.25" as="sourcePoint"/><mxPoint x="-114" y="503.25" as="targetPoint"/><Array as="points"/><mxPoint x="-1" as="offset"/></mxGeometry></mxCell><mxCell id="AfYDgv51XlKC_8JGlRU4-13" style="edgeStyle=none;rounded=0;orthogonalLoop=1;jettySize=auto;html=1;exitX=0.434;exitY=0.003;exitDx=0;exitDy=0;exitPerimeter=0;" parent="AfYDgv51XlKC_8JGlRU4-1" source="AfYDgv51XlKC_8JGlRU4-118" target="AfYDgv51XlKC_8JGlRU4-36" edge="1"><mxGeometry relative="1" as="geometry"><mxPoint x="-357" y="152" as="sourcePoint"/></mxGeometry></mxCell><mxCell id="AfYDgv51XlKC_8JGlRU4-183" value="ask consent &lt;br&gt;for scan &amp;amp; broadcast" style="edgeLabel;html=1;align=center;verticalAlign=middle;resizable=0;points=[];" parent="AfYDgv51XlKC_8JGlRU4-13" vertex="1" connectable="0"><mxGeometry x="0.0173" y="-3" relative="1" as="geometry"><mxPoint as="offset"/></mxGeometry></mxCell><mxCell id="AfYDgv51XlKC_8JGlRU4-14" style="edgeStyle=none;rounded=0;orthogonalLoop=1;jettySize=auto;html=1;exitX=1;exitY=0.5;exitDx=0;exitDy=0;entryX=-0.012;entryY=0.464;entryDx=0;entryDy=0;entryPerimeter=0;" parent="AfYDgv51XlKC_8JGlRU4-1" source="AfYDgv51XlKC_8JGlRU4-34" target="AfYDgv51XlKC_8JGlRU4-5" edge="1"><mxGeometry relative="1" as="geometry"><mxPoint x="-192" y="-51" as="sourcePoint"/><mxPoint x="-215" y="-8" as="targetPoint"/></mxGeometry></mxCell><mxCell id="AfYDgv51XlKC_8JGlRU4-15" value="userKeyHistory" style="text;html=1;strokeColor=none;fillColor=none;align=center;verticalAlign=middle;whiteSpace=wrap;rounded=0;" parent="AfYDgv51XlKC_8JGlRU4-1" vertex="1"><mxGeometry x="-46" y="479" width="40" height="20" as="geometry"/></mxCell><mxCell id="AfYDgv51XlKC_8JGlRU4-17" style="edgeStyle=none;rounded=0;orthogonalLoop=1;jettySize=auto;html=1;entryX=0.75;entryY=0;entryDx=0;entryDy=0;exitX=0;exitY=0.5;exitDx=0;exitDy=0;" parent="AfYDgv51XlKC_8JGlRU4-1" source="AfYDgv51XlKC_8JGlRU4-153" target="AfYDgv51XlKC_8JGlRU4-10" edge="1"><mxGeometry relative="1" as="geometry"><mxPoint x="555" y="347" as="targetPoint"/></mxGeometry></mxCell><mxCell id="AfYDgv51XlKC_8JGlRU4-18" style="edgeStyle=none;rounded=0;orthogonalLoop=1;jettySize=auto;html=1;" parent="AfYDgv51XlKC_8JGlRU4-1" source="AfYDgv51XlKC_8JGlRU4-150" target="AfYDgv51XlKC_8JGlRU4-116" edge="1"><mxGeometry relative="1" as="geometry"/></mxCell><mxCell id="AfYDgv51XlKC_8JGlRU4-24" value="" style="rounded=0;orthogonalLoop=1;jettySize=auto;html=1;exitX=0.75;exitY=1;exitDx=0;exitDy=0;entryX=0.25;entryY=0;entryDx=0;entryDy=0;" parent="AfYDgv51XlKC_8JGlRU4-1" source="AfYDgv51XlKC_8JGlRU4-118" target="AfYDgv51XlKC_8JGlRU4-122" edge="1"><mxGeometry relative="1" as="geometry"><mxPoint x="-426.03999999999996" y="464.24199999999996" as="sourcePoint"/><mxPoint x="-425" y="577.25" as="targetPoint"/></mxGeometry></mxCell><mxCell id="AfYDgv51XlKC_8JGlRU4-27" style="edgeStyle=none;rounded=0;orthogonalLoop=1;jettySize=auto;html=1;exitX=0.75;exitY=1;exitDx=0;exitDy=0;entryX=0.25;entryY=0;entryDx=0;entryDy=0;" parent="AfYDgv51XlKC_8JGlRU4-1" source="AfYDgv51XlKC_8JGlRU4-91" target="AfYDgv51XlKC_8JGlRU4-10" edge="1"><mxGeometry relative="1" as="geometry"><mxPoint x="305" y="352" as="targetPoint"/></mxGeometry></mxCell><mxCell id="AfYDgv51XlKC_8JGlRU4-28" style="edgeStyle=none;rounded=0;orthogonalLoop=1;jettySize=auto;html=1;entryX=0.75;entryY=0;entryDx=0;entryDy=0;exitX=0.276;exitY=0.917;exitDx=0;exitDy=0;exitPerimeter=0;" parent="AfYDgv51XlKC_8JGlRU4-1" source="AfYDgv51XlKC_8JGlRU4-94" target="AfYDgv51XlKC_8JGlRU4-138" edge="1"><mxGeometry relative="1" as="geometry"><mxPoint x="-335" y="31.5" as="sourcePoint"/><mxPoint x="-126" y="-38.5" as="targetPoint"/></mxGeometry></mxCell><mxCell id="AfYDgv51XlKC_8JGlRU4-45" value="" style="edgeStyle=none;rounded=0;orthogonalLoop=1;jettySize=auto;html=1;exitX=0.5;exitY=1;exitDx=0;exitDy=0;entryX=0.25;entryY=0;entryDx=0;entryDy=0;" parent="AfYDgv51XlKC_8JGlRU4-1" source="AfYDgv51XlKC_8JGlRU4-126" target="AfYDgv51XlKC_8JGlRU4-134" edge="1"><mxGeometry relative="1" as="geometry"><mxPoint x="-230.27300339467592" y="557.75" as="sourcePoint"/><mxPoint x="-175.7199999999998" y="582.72" as="targetPoint"/></mxGeometry></mxCell><mxCell id="AfYDgv51XlKC_8JGlRU4-46" value="" style="edgeStyle=none;rounded=0;orthogonalLoop=1;jettySize=auto;html=1;exitX=0.558;exitY=1.194;exitDx=0;exitDy=0;entryX=0.75;entryY=0;entryDx=0;entryDy=0;exitPerimeter=0;" parent="AfYDgv51XlKC_8JGlRU4-1" source="AfYDgv51XlKC_8JGlRU4-125" target="AfYDgv51XlKC_8JGlRU4-134" edge="1"><mxGeometry relative="1" as="geometry"><mxPoint x="-44.5" y="671.25" as="sourcePoint"/><mxPoint x="-285.2719665271966" y="557.75" as="targetPoint"/></mxGeometry></mxCell><mxCell id="AfYDgv51XlKC_8JGlRU4-181" value="uses" style="edgeLabel;html=1;align=center;verticalAlign=middle;resizable=0;points=[];" parent="AfYDgv51XlKC_8JGlRU4-46" vertex="1" connectable="0"><mxGeometry x="-0.4049" y="-1" relative="1" as="geometry"><mxPoint as="offset"/></mxGeometry></mxCell><mxCell id="AfYDgv51XlKC_8JGlRU4-47" value="" style="rounded=0;orthogonalLoop=1;jettySize=auto;html=1;exitX=0.25;exitY=1;exitDx=0;exitDy=0;entryX=0.5;entryY=0;entryDx=0;entryDy=0;" parent="AfYDgv51XlKC_8JGlRU4-1" source="AfYDgv51XlKC_8JGlRU4-118" target="AfYDgv51XlKC_8JGlRU4-126" edge="1"><mxGeometry relative="1" as="geometry"><mxPoint x="-392.71399999999994" y="375.57399999999984" as="sourcePoint"/><mxPoint x="-336" y="382.75" as="targetPoint"/></mxGeometry></mxCell><mxCell id="AfYDgv51XlKC_8JGlRU4-63" value="design drafts 2020-06-25" style="text;html=1;strokeColor=#b85450;fillColor=#f8cecc;align=center;verticalAlign=middle;whiteSpace=wrap;rounded=0;comic=1;fontStyle=1" parent="AfYDgv51XlKC_8JGlRU4-1" vertex="1"><mxGeometry x="233" y="-53" width="213" height="34" as="geometry"/></mxCell><mxCell id="AfYDgv51XlKC_8JGlRU4-67" style="edgeStyle=none;rounded=0;orthogonalLoop=1;jettySize=auto;html=1;entryX=0;entryY=0.5;entryDx=0;entryDy=0;exitX=1;exitY=0.25;exitDx=0;exitDy=0;" parent="AfYDgv51XlKC_8JGlRU4-1" source="AfYDgv51XlKC_8JGlRU4-29" target="AfYDgv51XlKC_8JGlRU4-92" edge="1"><mxGeometry relative="1" as="geometry"><mxPoint x="-142.96000000000004" y="172" as="sourcePoint"/><mxPoint x="-123.25" y="319" as="targetPoint"/></mxGeometry></mxCell><mxCell id="AfYDgv51XlKC_8JGlRU4-86" value="transmissionRiskLevel is set before upload to server." style="text;html=1;strokeColor=#6c8ebf;fillColor=#dae8fc;align=left;verticalAlign=middle;whiteSpace=wrap;rounded=0;comic=1;" parent="AfYDgv51XlKC_8JGlRU4-1" vertex="1"><mxGeometry x="90" y="599" width="160" height="37" as="geometry"/></mxCell><mxCell id="AfYDgv51XlKC_8JGlRU4-87" value="" style="endArrow=none;dashed=1;html=1;exitX=0;exitY=0.5;exitDx=0;exitDy=0;" parent="AfYDgv51XlKC_8JGlRU4-1" source="AfYDgv51XlKC_8JGlRU4-86" target="AfYDgv51XlKC_8JGlRU4-131" edge="1"><mxGeometry width="50" height="50" relative="1" as="geometry"><mxPoint x="324" y="303.25" as="sourcePoint"/><mxPoint x="374" y="253.25" as="targetPoint"/></mxGeometry></mxCell><mxCell id="AfYDgv51XlKC_8JGlRU4-88" value="&lt;span&gt;Example&amp;nbsp;&lt;br&gt;&lt;br&gt;0: Unused&lt;/span&gt;&lt;br&gt;&lt;span&gt;1: Confirmed test - Low transmission risk level&lt;/span&gt;&lt;br&gt;&lt;span&gt;2: Confirmed test - Standard transmission risk level&lt;/span&gt;&lt;br&gt;&lt;span&gt;3: Confirmed test - High transmission risk level&lt;/span&gt;&lt;br&gt;&lt;span&gt;4: Confirmed clinical diagnosis&lt;/span&gt;&lt;br&gt;&lt;span&gt;5: Self report&lt;/span&gt;&lt;br&gt;&lt;span&gt;6: Negative case&lt;/span&gt;&lt;br&gt;&lt;span&gt;7: Recursive case&lt;/span&gt;&lt;br&gt;&lt;span&gt;8: Unused/custom&lt;/span&gt;" style="text;html=1;strokeColor=#6c8ebf;fillColor=#dae8fc;align=left;verticalAlign=middle;whiteSpace=wrap;rounded=0;comic=1;" parent="AfYDgv51XlKC_8JGlRU4-1" vertex="1"><mxGeometry x="302" y="529" width="293" height="172.5" as="geometry"/></mxCell><mxCell id="AfYDgv51XlKC_8JGlRU4-89" value="" style="endArrow=none;dashed=1;html=1;entryX=1;entryY=0.5;entryDx=0;entryDy=0;exitX=0;exitY=0.5;exitDx=0;exitDy=0;" parent="AfYDgv51XlKC_8JGlRU4-1" source="AfYDgv51XlKC_8JGlRU4-88" target="AfYDgv51XlKC_8JGlRU4-86" edge="1"><mxGeometry width="50" height="50" relative="1" as="geometry"><mxPoint x="324" y="559.25" as="sourcePoint"/><mxPoint x="374" y="509.25" as="targetPoint"/></mxGeometry></mxCell><mxCell id="AfYDgv51XlKC_8JGlRU4-190" value="" style="edgeStyle=none;rounded=0;orthogonalLoop=1;jettySize=auto;html=1;exitX=0.758;exitY=0.917;exitDx=0;exitDy=0;entryX=0.25;entryY=0;entryDx=0;entryDy=0;exitPerimeter=0;" parent="AfYDgv51XlKC_8JGlRU4-1" source="AfYDgv51XlKC_8JGlRU4-187" target="AfYDgv51XlKC_8JGlRU4-130" edge="1"><mxGeometry relative="1" as="geometry"><mxPoint x="-190" y="572.5" as="targetPoint"/><mxPoint x="-328" y="591.5" as="sourcePoint"/></mxGeometry></mxCell><mxCell id="AfYDgv51XlKC_8JGlRU4-191" value="create" style="edgeLabel;html=1;align=center;verticalAlign=middle;resizable=0;points=[];" parent="AfYDgv51XlKC_8JGlRU4-190" vertex="1" connectable="0"><mxGeometry x="-0.1002" y="2" relative="1" as="geometry"><mxPoint x="-5.23" y="1.22" as="offset"/></mxGeometry></mxCell><mxCell id="AfYDgv51XlKC_8JGlRU4-192" value="indexTEKHistory&lt;br&gt;(14)" style="text;html=1;strokeColor=none;fillColor=none;align=center;verticalAlign=middle;whiteSpace=wrap;rounded=0;" parent="AfYDgv51XlKC_8JGlRU4-1" vertex="1"><mxGeometry x="1" y="541" width="40" height="20" as="geometry"/></mxCell><mxCell id="AfYDgv51XlKC_8JGlRU4-126" value="Scan" style="swimlane;fontStyle=1;align=center;verticalAlign=top;childLayout=stackLayout;horizontal=1;startSize=26;horizontalStack=0;resizeParent=1;resizeParentMax=0;resizeLast=0;collapsible=1;marginBottom=0;fillColor=#ffffff;" parent="AfYDgv51XlKC_8JGlRU4-1" vertex="1"><mxGeometry x="-526" y="460.25" width="95" height="62" as="geometry"/></mxCell><mxCell id="AfYDgv51XlKC_8JGlRU4-127" value=" " style="text;strokeColor=none;fillColor=#ffffff;align=left;verticalAlign=top;spacingLeft=4;spacingRight=4;overflow=hidden;rotatable=0;points=[[0,0.5],[1,0.5]];portConstraint=eastwest;" parent="AfYDgv51XlKC_8JGlRU4-126" vertex="1"><mxGeometry y="26" width="95" height="16" as="geometry"/></mxCell><mxCell id="AfYDgv51XlKC_8JGlRU4-128" value="" style="line;strokeWidth=1;fillColor=#ffffff;align=left;verticalAlign=middle;spacingTop=-1;spacingLeft=3;spacingRight=3;rotatable=0;labelPosition=right;points=[];portConstraint=eastwest;" parent="AfYDgv51XlKC_8JGlRU4-126" vertex="1"><mxGeometry y="42" width="95" height="8" as="geometry"/></mxCell><mxCell id="AfYDgv51XlKC_8JGlRU4-129" value=" " style="text;strokeColor=none;fillColor=#ffffff;align=left;verticalAlign=top;spacingLeft=4;spacingRight=4;overflow=hidden;rotatable=0;points=[[0,0.5],[1,0.5]];portConstraint=eastwest;" parent="AfYDgv51XlKC_8JGlRU4-126" vertex="1"><mxGeometry y="50" width="95" height="12" as="geometry"/></mxCell><mxCell id="AfYDgv51XlKC_8JGlRU4-122" value="Broadcast" style="swimlane;fontStyle=1;align=center;verticalAlign=top;childLayout=stackLayout;horizontal=1;startSize=26;horizontalStack=0;resizeParent=1;resizeParentMax=0;resizeLast=0;collapsible=1;marginBottom=0;fillColor=#ffffff;" parent="AfYDgv51XlKC_8JGlRU4-1" vertex="1"><mxGeometry x="-414" y="460.25" width="96" height="62" as="geometry"/></mxCell><mxCell id="AfYDgv51XlKC_8JGlRU4-123" value=" " style="text;strokeColor=none;fillColor=#ffffff;align=left;verticalAlign=top;spacingLeft=4;spacingRight=4;overflow=hidden;rotatable=0;points=[[0,0.5],[1,0.5]];portConstraint=eastwest;" parent="AfYDgv51XlKC_8JGlRU4-122" vertex="1"><mxGeometry y="26" width="96" height="16" as="geometry"/></mxCell><mxCell id="AfYDgv51XlKC_8JGlRU4-124" value="" style="line;strokeWidth=1;fillColor=#ffffff;align=left;verticalAlign=middle;spacingTop=-1;spacingLeft=3;spacingRight=3;rotatable=0;labelPosition=right;points=[];portConstraint=eastwest;" parent="AfYDgv51XlKC_8JGlRU4-122" vertex="1"><mxGeometry y="42" width="96" height="8" as="geometry"/></mxCell><mxCell id="AfYDgv51XlKC_8JGlRU4-125" value=" " style="text;strokeColor=none;fillColor=#ffffff;align=left;verticalAlign=top;spacingLeft=4;spacingRight=4;overflow=hidden;rotatable=0;points=[[0,0.5],[1,0.5]];portConstraint=eastwest;" parent="AfYDgv51XlKC_8JGlRU4-122" vertex="1"><mxGeometry y="50" width="96" height="12" as="geometry"/></mxCell><mxCell id="AfYDgv51XlKC_8JGlRU4-134" value="RollingProximityIdentifier" style="swimlane;fontStyle=1;align=center;verticalAlign=top;childLayout=stackLayout;horizontal=1;startSize=26;horizontalStack=0;resizeParent=1;resizeParentMax=0;resizeLast=0;collapsible=1;marginBottom=0;fillColor=#dae8fc;strokeColor=#6c8ebf;" parent="AfYDgv51XlKC_8JGlRU4-1" vertex="1"><mxGeometry x="-498" y="566" width="160" height="62" as="geometry"/></mxCell><mxCell id="AfYDgv51XlKC_8JGlRU4-135" value=" " style="text;strokeColor=none;fillColor=#ffffff;align=left;verticalAlign=top;spacingLeft=4;spacingRight=4;overflow=hidden;rotatable=0;points=[[0,0.5],[1,0.5]];portConstraint=eastwest;" parent="AfYDgv51XlKC_8JGlRU4-134" vertex="1"><mxGeometry y="26" width="160" height="16" as="geometry"/></mxCell><mxCell id="AfYDgv51XlKC_8JGlRU4-136" value="" style="line;strokeWidth=1;fillColor=none;align=left;verticalAlign=middle;spacingTop=-1;spacingLeft=3;spacingRight=3;rotatable=0;labelPosition=right;points=[];portConstraint=eastwest;" parent="AfYDgv51XlKC_8JGlRU4-134" vertex="1"><mxGeometry y="42" width="160" height="8" as="geometry"/></mxCell><mxCell id="AfYDgv51XlKC_8JGlRU4-137" value=" " style="text;strokeColor=none;fillColor=#ffffff;align=left;verticalAlign=top;spacingLeft=4;spacingRight=4;overflow=hidden;rotatable=0;points=[[0,0.5],[1,0.5]];portConstraint=eastwest;" parent="AfYDgv51XlKC_8JGlRU4-134" vertex="1"><mxGeometry y="50" width="160" height="12" as="geometry"/></mxCell><mxCell id="AfYDgv51XlKC_8JGlRU4-118" value="BluetoothDetection" style="swimlane;fontStyle=1;align=center;verticalAlign=top;childLayout=stackLayout;horizontal=1;startSize=26;horizontalStack=0;resizeParent=1;resizeParentMax=0;resizeLast=0;collapsible=1;marginBottom=0;fillColor=#ffffff;" parent="AfYDgv51XlKC_8JGlRU4-1" vertex="1"><mxGeometry x="-503" y="316" width="119" height="106" as="geometry"/></mxCell><mxCell id="AfYDgv51XlKC_8JGlRU4-119" value=" " style="text;strokeColor=none;fillColor=#ffffff;align=left;verticalAlign=top;spacingLeft=4;spacingRight=4;overflow=hidden;rotatable=0;points=[[0,0.5],[1,0.5]];portConstraint=eastwest;" parent="AfYDgv51XlKC_8JGlRU4-118" vertex="1"><mxGeometry y="26" width="119" height="16" as="geometry"/></mxCell><mxCell id="AfYDgv51XlKC_8JGlRU4-120" value="" style="line;strokeWidth=1;fillColor=#ffffff;align=left;verticalAlign=middle;spacingTop=-1;spacingLeft=3;spacingRight=3;rotatable=0;labelPosition=right;points=[];portConstraint=eastwest;" parent="AfYDgv51XlKC_8JGlRU4-118" vertex="1"><mxGeometry y="42" width="119" height="8" as="geometry"/></mxCell><mxCell id="AfYDgv51XlKC_8JGlRU4-121" value="start()&#10;stop()&#10;isEnabled()" style="text;strokeColor=#6c8ebf;fillColor=#dae8fc;align=left;verticalAlign=top;overflow=hidden;rotatable=0;points=[[0,0.5],[1,0.5]];portConstraint=eastwest;fontStyle=0;startSize=26;" parent="AfYDgv51XlKC_8JGlRU4-118" vertex="1"><mxGeometry y="50" width="119" height="56" as="geometry"/></mxCell><mxCell id="AfYDgv51XlKC_8JGlRU4-184" value="KeyGeneration" style="swimlane;fontStyle=1;align=center;verticalAlign=top;childLayout=stackLayout;horizontal=1;startSize=26;horizontalStack=0;resizeParent=1;resizeParentMax=0;resizeLast=0;collapsible=1;marginBottom=0;fillColor=#dae8fc;strokeColor=#6c8ebf;" parent="AfYDgv51XlKC_8JGlRU4-1" vertex="1"><mxGeometry x="-291" y="388" width="117" height="62" as="geometry"/></mxCell><mxCell id="AfYDgv51XlKC_8JGlRU4-185" value=" " style="text;strokeColor=none;fillColor=#ffffff;align=left;verticalAlign=top;spacingLeft=4;spacingRight=4;overflow=hidden;rotatable=0;points=[[0,0.5],[1,0.5]];portConstraint=eastwest;" parent="AfYDgv51XlKC_8JGlRU4-184" vertex="1"><mxGeometry y="26" width="117" height="16" as="geometry"/></mxCell><mxCell id="AfYDgv51XlKC_8JGlRU4-186" value="" style="line;strokeWidth=1;fillColor=#ffffff;align=left;verticalAlign=middle;spacingTop=-1;spacingLeft=3;spacingRight=3;rotatable=0;labelPosition=right;points=[];portConstraint=eastwest;" parent="AfYDgv51XlKC_8JGlRU4-184" vertex="1"><mxGeometry y="42" width="117" height="8" as="geometry"/></mxCell><mxCell id="AfYDgv51XlKC_8JGlRU4-187" value=" " style="text;strokeColor=none;fillColor=#ffffff;align=left;verticalAlign=top;spacingLeft=4;spacingRight=4;overflow=hidden;rotatable=0;points=[[0,0.5],[1,0.5]];portConstraint=eastwest;" parent="AfYDgv51XlKC_8JGlRU4-184" vertex="1"><mxGeometry y="50" width="117" height="12" as="geometry"/></mxCell><mxCell id="AfYDgv51XlKC_8JGlRU4-130" value="TemporaryExposureKey" style="swimlane;fontStyle=1;align=center;verticalAlign=top;childLayout=stackLayout;horizontal=1;startSize=26;horizontalStack=0;resizeParent=1;resizeParentMax=0;resizeLast=0;collapsible=1;marginBottom=0;fillColor=#dae8fc;strokeColor=#6c8ebf;" parent="AfYDgv51XlKC_8JGlRU4-1" vertex="1"><mxGeometry x="-199" y="503" width="160" height="125" as="geometry"/></mxCell><mxCell id="AfYDgv51XlKC_8JGlRU4-131" value="keyData:[]&#10;rollingStartNumber&#10;rollingPeriod&#10;transmissionRiskLevel" style="text;strokeColor=none;fillColor=#ffffff;align=left;verticalAlign=top;spacingLeft=4;spacingRight=4;overflow=hidden;rotatable=0;points=[[0,0.5],[1,0.5]];portConstraint=eastwest;" parent="AfYDgv51XlKC_8JGlRU4-130" vertex="1"><mxGeometry y="26" width="160" height="67" as="geometry"/></mxCell><mxCell id="AfYDgv51XlKC_8JGlRU4-132" value="" style="line;strokeWidth=1;fillColor=#ffffff;align=left;verticalAlign=middle;spacingTop=-1;spacingLeft=3;spacingRight=3;rotatable=0;labelPosition=right;points=[];portConstraint=eastwest;" parent="AfYDgv51XlKC_8JGlRU4-130" vertex="1"><mxGeometry y="93" width="160" height="8" as="geometry"/></mxCell><mxCell id="AfYDgv51XlKC_8JGlRU4-133" value=" " style="text;strokeColor=none;fillColor=#ffffff;align=left;verticalAlign=top;spacingLeft=4;spacingRight=4;overflow=hidden;rotatable=0;points=[[0,0.5],[1,0.5]];portConstraint=eastwest;" parent="AfYDgv51XlKC_8JGlRU4-130" vertex="1"><mxGeometry y="101" width="160" height="24" as="geometry"/></mxCell><mxCell id="AfYDgv51XlKC_8JGlRU4-138" value="AG API" style="swimlane;fontStyle=1;align=center;verticalAlign=top;childLayout=stackLayout;horizontal=1;startSize=26;horizontalStack=0;resizeParent=1;resizeParentMax=0;resizeLast=0;collapsible=1;marginBottom=0;fillColor=#dae8fc;strokeColor=#6c8ebf;" parent="AfYDgv51XlKC_8JGlRU4-1" vertex="1"><mxGeometry x="-134" y="328" width="227" height="111" as="geometry"/></mxCell><mxCell id="AfYDgv51XlKC_8JGlRU4-139" value=" " style="text;strokeColor=#6c8ebf;fillColor=#dae8fc;align=left;verticalAlign=top;spacingLeft=4;spacingRight=4;overflow=hidden;rotatable=0;points=[[0,0.5],[1,0.5]];portConstraint=eastwest;" parent="AfYDgv51XlKC_8JGlRU4-138" vertex="1"><mxGeometry y="26" width="227" height="20" as="geometry"/></mxCell><mxCell id="AfYDgv51XlKC_8JGlRU4-140" value="" style="line;strokeWidth=1;fillColor=#dae8fc;align=left;verticalAlign=middle;spacingTop=-1;spacingLeft=3;spacingRight=3;rotatable=0;labelPosition=right;points=[];portConstraint=eastwest;strokeColor=#6c8ebf;" parent="AfYDgv51XlKC_8JGlRU4-138" vertex="1"><mxGeometry y="46" width="227" height="8" as="geometry"/></mxCell><mxCell id="AfYDgv51XlKC_8JGlRU4-141" value="getTempExposureKeyHistory():List(TEK)&#10;{past 14d excl. current day, &#10;asks user permission every 24h}" style="text;strokeColor=#6c8ebf;fillColor=#dae8fc;align=left;verticalAlign=top;spacingLeft=4;spacingRight=4;overflow=hidden;rotatable=0;points=[[0,0.5],[1,0.5]];portConstraint=eastwest;" parent="AfYDgv51XlKC_8JGlRU4-138" vertex="1"><mxGeometry y="54" width="227" height="57" as="geometry"/></mxCell><mxCell id="lI8CtXxW3s-L7TsafRq1-8" style="edgeStyle=none;rounded=0;orthogonalLoop=1;jettySize=auto;html=1;entryX=0.5;entryY=0;entryDx=0;entryDy=0;exitX=0.208;exitY=0.962;exitDx=0;exitDy=0;exitPerimeter=0;" parent="AfYDgv51XlKC_8JGlRU4-1" source="AfYDgv51XlKC_8JGlRU4-153" target="lI8CtXxW3s-L7TsafRq1-0" edge="1"><mxGeometry relative="1" as="geometry"><mxPoint x="751.44089456869" y="108" as="sourcePoint"/><mxPoint x="773.4217252396165" y="28" as="targetPoint"/></mxGeometry></mxCell><mxCell id="lI8CtXxW3s-L7TsafRq1-10" style="edgeStyle=none;rounded=0;orthogonalLoop=1;jettySize=auto;html=1;entryX=0.5;entryY=1;entryDx=0;entryDy=0;exitX=0.75;exitY=0;exitDx=0;exitDy=0;" parent="AfYDgv51XlKC_8JGlRU4-1" source="39hphCAQmJyrG1cy40X3-0" target="AfYDgv51XlKC_8JGlRU4-164" edge="1"><mxGeometry relative="1" as="geometry"><mxPoint x="748.2354430379746" y="154" as="sourcePoint"/><mxPoint x="777.6430379746835" y="33" as="targetPoint"/></mxGeometry></mxCell><mxCell id="lI8CtXxW3s-L7TsafRq1-11" style="edgeStyle=none;rounded=0;orthogonalLoop=1;jettySize=auto;html=1;exitX=0.25;exitY=0;exitDx=0;exitDy=0;" parent="AfYDgv51XlKC_8JGlRU4-1" source="39hphCAQmJyrG1cy40X3-0" target="AfYDgv51XlKC_8JGlRU4-148" edge="1"><mxGeometry relative="1" as="geometry"><mxPoint x="793" y="230" as="sourcePoint"/><mxPoint x="926" y="291.5" as="targetPoint"/></mxGeometry></mxCell><mxCell id="lI8CtXxW3s-L7TsafRq1-12" value="retrievedDiagnosisKeys" style="text;html=1;strokeColor=none;fillColor=none;align=center;verticalAlign=middle;whiteSpace=wrap;rounded=0;" parent="AfYDgv51XlKC_8JGlRU4-1" vertex="1"><mxGeometry x="722" y="254" width="40" height="20" as="geometry"/></mxCell><mxCell id="AfYDgv51XlKC_8JGlRU4-91" value="Submission" style="swimlane;fontStyle=1;align=center;verticalAlign=top;childLayout=stackLayout;horizontal=1;startSize=38;horizontalStack=0;resizeParent=1;resizeParentMax=0;resizeLast=0;collapsible=1;marginBottom=0;fillColor=#ffffff;" parent="AfYDgv51XlKC_8JGlRU4-1" vertex="1"><mxGeometry x="60" y="119" width="214" height="88" as="geometry"/></mxCell><mxCell id="AfYDgv51XlKC_8JGlRU4-92" value=" " style="text;strokeColor=none;fillColor=#ffffff;align=left;verticalAlign=top;spacingLeft=4;spacingRight=4;overflow=hidden;rotatable=0;points=[[0,0.5],[1,0.5]];portConstraint=eastwest;" parent="AfYDgv51XlKC_8JGlRU4-91" vertex="1"><mxGeometry y="38" width="214" height="8" as="geometry"/></mxCell><mxCell id="AfYDgv51XlKC_8JGlRU4-93" value="" style="line;strokeWidth=1;fillColor=#ffffff;align=left;verticalAlign=middle;spacingTop=-1;spacingLeft=3;spacingRight=3;rotatable=0;labelPosition=right;points=[];portConstraint=eastwest;" parent="AfYDgv51XlKC_8JGlRU4-91" vertex="1"><mxGeometry y="46" width="214" height="8" as="geometry"/></mxCell><mxCell id="AfYDgv51XlKC_8JGlRU4-94" value="setTransmissionRiskLevel(List(TEK))" style="text;strokeColor=none;fillColor=#ffffff;align=left;verticalAlign=top;spacingLeft=4;spacingRight=4;overflow=hidden;rotatable=0;points=[[0,0.5],[1,0.5]];portConstraint=eastwest;" parent="AfYDgv51XlKC_8JGlRU4-91" vertex="1"><mxGeometry y="54" width="214" height="34" as="geometry"/></mxCell><mxCell id="AfYDgv51XlKC_8JGlRU4-29" value="SwabTest" style="swimlane;fontStyle=1;align=center;verticalAlign=top;childLayout=stackLayout;horizontal=1;startSize=26;horizontalStack=0;resizeParent=1;resizeParentMax=0;resizeLast=0;collapsible=1;marginBottom=0;fillColor=#ffffff;" parent="AfYDgv51XlKC_8JGlRU4-1" vertex="1"><mxGeometry x="-243" y="99" width="123" height="79" as="geometry"/></mxCell><mxCell id="AfYDgv51XlKC_8JGlRU4-30" value="" style="text;strokeColor=none;fillColor=#ffffff;align=left;verticalAlign=top;spacingLeft=4;spacingRight=4;overflow=hidden;rotatable=0;points=[[0,0.5],[1,0.5]];portConstraint=eastwest;" parent="AfYDgv51XlKC_8JGlRU4-29" vertex="1"><mxGeometry y="26" width="123" height="16" as="geometry"/></mxCell><mxCell id="AfYDgv51XlKC_8JGlRU4-31" value="" style="line;strokeWidth=1;fillColor=#ffffff;align=left;verticalAlign=middle;spacingTop=-1;spacingLeft=3;spacingRight=3;rotatable=0;labelPosition=right;points=[];portConstraint=eastwest;" parent="AfYDgv51XlKC_8JGlRU4-29" vertex="1"><mxGeometry y="42" width="123" height="8" as="geometry"/></mxCell><mxCell id="AfYDgv51XlKC_8JGlRU4-32" value="isPositive()" style="text;strokeColor=none;fillColor=#ffffff;align=left;verticalAlign=top;spacingLeft=4;spacingRight=4;overflow=hidden;rotatable=0;points=[[0,0.5],[1,0.5]];portConstraint=eastwest;" parent="AfYDgv51XlKC_8JGlRU4-29" vertex="1"><mxGeometry y="50" width="123" height="29" as="geometry"/></mxCell><mxCell id="39hphCAQmJyrG1cy40X3-4" value="creates" style="rounded=0;orthogonalLoop=1;jettySize=auto;html=1;fontSize=11;exitX=1;exitY=0.75;exitDx=0;exitDy=0;entryX=0;entryY=0.5;entryDx=0;entryDy=0;" parent="AfYDgv51XlKC_8JGlRU4-1" source="AfYDgv51XlKC_8JGlRU4-150" target="39hphCAQmJyrG1cy40X3-0" edge="1"><mxGeometry relative="1" as="geometry"/></mxCell><mxCell id="AfYDgv51XlKC_8JGlRU4-113" value="AG API" style="swimlane;fontStyle=1;align=center;verticalAlign=top;childLayout=stackLayout;horizontal=1;startSize=26;horizontalStack=0;resizeParent=1;resizeParentMax=0;resizeLast=0;collapsible=1;marginBottom=0;fillColor=#dae8fc;strokeColor=#6c8ebf;" parent="AfYDgv51XlKC_8JGlRU4-1" vertex="1"><mxGeometry x="582" y="-32" width="346" height="131" as="geometry"/></mxCell><mxCell id="AfYDgv51XlKC_8JGlRU4-114" value=" " style="text;strokeColor=#6c8ebf;fillColor=#dae8fc;align=left;verticalAlign=top;spacingLeft=4;spacingRight=4;overflow=hidden;rotatable=0;points=[[0,0.5],[1,0.5]];portConstraint=eastwest;" parent="AfYDgv51XlKC_8JGlRU4-113" vertex="1"><mxGeometry y="26" width="346" height="20" as="geometry"/></mxCell><mxCell id="AfYDgv51XlKC_8JGlRU4-115" value="" style="line;strokeWidth=1;fillColor=#dae8fc;align=left;verticalAlign=middle;spacingTop=-1;spacingLeft=3;spacingRight=3;rotatable=0;labelPosition=right;points=[];portConstraint=eastwest;strokeColor=#6c8ebf;" parent="AfYDgv51XlKC_8JGlRU4-113" vertex="1"><mxGeometry y="46" width="346" height="8" as="geometry"/></mxCell><mxCell id="AfYDgv51XlKC_8JGlRU4-116" value="provideDiagKeys(List(keyFiles), exposureConfiguration, token)&#10;{20x day}&#10;&#10;getExposureSummary(token): ExposureSummary&#10;getExposureInformation(token): List(ExposureInformation)" style="text;strokeColor=#6c8ebf;fillColor=#dae8fc;align=left;verticalAlign=top;spacingLeft=4;spacingRight=4;overflow=hidden;rotatable=0;points=[[0,0.5],[1,0.5]];portConstraint=eastwest;" parent="AfYDgv51XlKC_8JGlRU4-113" vertex="1"><mxGeometry y="54" width="346" height="77" as="geometry"/></mxCell><mxCell id="AfYDgv51XlKC_8JGlRU4-145" value="ExposureInformation" style="swimlane;fontStyle=1;align=center;verticalAlign=top;childLayout=stackLayout;horizontal=1;startSize=26;horizontalStack=0;resizeParent=1;resizeParentMax=0;resizeLast=0;collapsible=1;marginBottom=0;fillColor=#dae8fc;strokeColor=#6c8ebf;" parent="AfYDgv51XlKC_8JGlRU4-1" vertex="1"><mxGeometry x="942" y="31" width="160" height="143" as="geometry"/></mxCell><mxCell id="AfYDgv51XlKC_8JGlRU4-146" value="dateMillisSinceEpoch&#10;durationMinutes&#10;attenuationValue&#10;attenuationDurations: []&#10;transmissionRiskLevel&#10;totalRiskScore" style="text;strokeColor=none;fillColor=#ffffff;align=left;verticalAlign=top;spacingLeft=4;spacingRight=4;overflow=hidden;rotatable=0;points=[[0,0.5],[1,0.5]];portConstraint=eastwest;" parent="AfYDgv51XlKC_8JGlRU4-145" vertex="1"><mxGeometry y="26" width="160" height="97" as="geometry"/></mxCell><mxCell id="AfYDgv51XlKC_8JGlRU4-147" value="" style="line;strokeWidth=1;fillColor=#ffffff;align=left;verticalAlign=middle;spacingTop=-1;spacingLeft=3;spacingRight=3;rotatable=0;labelPosition=right;points=[];portConstraint=eastwest;" parent="AfYDgv51XlKC_8JGlRU4-145" vertex="1"><mxGeometry y="123" width="160" height="8" as="geometry"/></mxCell><mxCell id="AfYDgv51XlKC_8JGlRU4-148" value=" " style="text;strokeColor=none;fillColor=#ffffff;align=left;verticalAlign=top;spacingLeft=4;spacingRight=4;overflow=hidden;rotatable=0;points=[[0,0.5],[1,0.5]];portConstraint=eastwest;" parent="AfYDgv51XlKC_8JGlRU4-145" vertex="1"><mxGeometry y="131" width="160" height="12" as="geometry"/></mxCell><mxCell id="AfYDgv51XlKC_8JGlRU4-164" value="ExposureSummary" style="swimlane;fontStyle=1;align=center;verticalAlign=top;childLayout=stackLayout;horizontal=1;startSize=26;horizontalStack=0;resizeParent=1;resizeParentMax=0;resizeLast=0;collapsible=1;marginBottom=0;fillColor=#dae8fc;strokeColor=#6c8ebf;" parent="AfYDgv51XlKC_8JGlRU4-1" vertex="1"><mxGeometry x="1129" y="43" width="160" height="131" as="geometry"/></mxCell><mxCell id="AfYDgv51XlKC_8JGlRU4-165" value="daysSinceLastExposure&#10;matchedKeyCount&#10;maxRiskScore&#10;attenuationDurations:[]&#10;summationRiskScore" style="text;strokeColor=none;fillColor=#ffffff;align=left;verticalAlign=top;spacingLeft=4;spacingRight=4;overflow=hidden;rotatable=0;points=[[0,0.5],[1,0.5]];portConstraint=eastwest;" parent="AfYDgv51XlKC_8JGlRU4-164" vertex="1"><mxGeometry y="26" width="160" height="85" as="geometry"/></mxCell><mxCell id="AfYDgv51XlKC_8JGlRU4-166" value="" style="line;strokeWidth=1;fillColor=#ffffff;align=left;verticalAlign=middle;spacingTop=-1;spacingLeft=3;spacingRight=3;rotatable=0;labelPosition=right;points=[];portConstraint=eastwest;" parent="AfYDgv51XlKC_8JGlRU4-164" vertex="1"><mxGeometry y="111" width="160" height="8" as="geometry"/></mxCell><mxCell id="AfYDgv51XlKC_8JGlRU4-167" value=" " style="text;strokeColor=none;fillColor=#ffffff;align=left;verticalAlign=top;spacingLeft=4;spacingRight=4;overflow=hidden;rotatable=0;points=[[0,0.5],[1,0.5]];portConstraint=eastwest;" parent="AfYDgv51XlKC_8JGlRU4-164" vertex="1"><mxGeometry y="119" width="160" height="12" as="geometry"/></mxCell><mxCell id="39hphCAQmJyrG1cy40X3-0" value="MatchedExposures" style="swimlane;fontStyle=1;align=center;verticalAlign=top;childLayout=stackLayout;horizontal=1;startSize=26;horizontalStack=0;resizeParent=1;resizeParentMax=0;resizeLast=0;collapsible=1;marginBottom=0;fillColor=#ffffff;" parent="AfYDgv51XlKC_8JGlRU4-1" vertex="1"><mxGeometry x="998" y="235" width="216" height="76" as="geometry"/></mxCell><mxCell id="39hphCAQmJyrG1cy40X3-1" value=" " style="text;strokeColor=none;fillColor=#ffffff;align=left;verticalAlign=top;spacingLeft=4;spacingRight=4;overflow=hidden;rotatable=0;points=[[0,0.5],[1,0.5]];portConstraint=eastwest;" parent="39hphCAQmJyrG1cy40X3-0" vertex="1"><mxGeometry y="26" width="216" height="16" as="geometry"/></mxCell><mxCell id="39hphCAQmJyrG1cy40X3-2" value="" style="line;strokeWidth=1;fillColor=#ffffff;align=left;verticalAlign=middle;spacingTop=-1;spacingLeft=3;spacingRight=3;rotatable=0;labelPosition=right;points=[];portConstraint=eastwest;" parent="39hphCAQmJyrG1cy40X3-0" vertex="1"><mxGeometry y="42" width="216" height="8" as="geometry"/></mxCell><mxCell id="39hphCAQmJyrG1cy40X3-3" value="" style="text;strokeColor=none;fillColor=#ffffff;align=left;verticalAlign=top;spacingLeft=4;spacingRight=4;overflow=hidden;rotatable=0;points=[[0,0.5],[1,0.5]];portConstraint=eastwest;" parent="39hphCAQmJyrG1cy40X3-0" vertex="1"><mxGeometry y="50" width="216" height="26" as="geometry"/></mxCell><mxCell id="39hphCAQmJyrG1cy40X3-5" value="forEachMatch" style="text;html=1;strokeColor=none;fillColor=none;align=center;verticalAlign=middle;whiteSpace=wrap;rounded=0;" parent="AfYDgv51XlKC_8JGlRU4-1" vertex="1"><mxGeometry x="1054" y="177" width="40" height="20" as="geometry"/></mxCell><mxCell id="39hphCAQmJyrG1cy40X3-6" value="forEachQuery" style="text;html=1;strokeColor=none;fillColor=none;align=center;verticalAlign=middle;whiteSpace=wrap;rounded=0;" parent="AfYDgv51XlKC_8JGlRU4-1" vertex="1"><mxGeometry x="1225" y="180" width="40" height="20" as="geometry"/></mxCell><mxCell id="AfYDgv51XlKC_8JGlRU4-150" value="RetrieveAndProvide" style="swimlane;fontStyle=1;align=center;verticalAlign=top;childLayout=stackLayout;horizontal=1;startSize=26;horizontalStack=0;resizeParent=1;resizeParentMax=0;resizeLast=0;collapsible=1;marginBottom=0;fillColor=#ffffff;" parent="AfYDgv51XlKC_8JGlRU4-1" vertex="1"><mxGeometry x="643" y="149" width="216" height="76" as="geometry"/></mxCell><mxCell id="AfYDgv51XlKC_8JGlRU4-151" value=" " style="text;strokeColor=none;fillColor=#ffffff;align=left;verticalAlign=top;spacingLeft=4;spacingRight=4;overflow=hidden;rotatable=0;points=[[0,0.5],[1,0.5]];portConstraint=eastwest;" parent="AfYDgv51XlKC_8JGlRU4-150" vertex="1"><mxGeometry y="26" width="216" height="16" as="geometry"/></mxCell><mxCell id="AfYDgv51XlKC_8JGlRU4-152" value="" style="line;strokeWidth=1;fillColor=#ffffff;align=left;verticalAlign=middle;spacingTop=-1;spacingLeft=3;spacingRight=3;rotatable=0;labelPosition=right;points=[];portConstraint=eastwest;" parent="AfYDgv51XlKC_8JGlRU4-150" vertex="1"><mxGeometry y="42" width="216" height="8" as="geometry"/></mxCell><mxCell id="AfYDgv51XlKC_8JGlRU4-153" value="" style="text;strokeColor=none;fillColor=#ffffff;align=left;verticalAlign=top;spacingLeft=4;spacingRight=4;overflow=hidden;rotatable=0;points=[[0,0.5],[1,0.5]];portConstraint=eastwest;" parent="AfYDgv51XlKC_8JGlRU4-150" vertex="1"><mxGeometry y="50" width="216" height="26" as="geometry"/></mxCell><mxCell id="lI8CtXxW3s-L7TsafRq1-0" value="TemporaryExposureKey" style="swimlane;fontStyle=1;align=center;verticalAlign=top;childLayout=stackLayout;horizontal=1;startSize=26;horizontalStack=0;resizeParent=1;resizeParentMax=0;resizeLast=0;collapsible=1;marginBottom=0;fillColor=#dae8fc;strokeColor=#6c8ebf;" parent="AfYDgv51XlKC_8JGlRU4-1" vertex="1"><mxGeometry x="626" y="283" width="160" height="125" as="geometry"/></mxCell><mxCell id="lI8CtXxW3s-L7TsafRq1-1" value="keyData:[]&#10;rollingStartNumber&#10;rollingPeriod&#10;transmissionRiskLevel" style="text;strokeColor=none;fillColor=#ffffff;align=left;verticalAlign=top;spacingLeft=4;spacingRight=4;overflow=hidden;rotatable=0;points=[[0,0.5],[1,0.5]];portConstraint=eastwest;" parent="lI8CtXxW3s-L7TsafRq1-0" vertex="1"><mxGeometry y="26" width="160" height="67" as="geometry"/></mxCell><mxCell id="lI8CtXxW3s-L7TsafRq1-2" value="" style="line;strokeWidth=1;fillColor=#ffffff;align=left;verticalAlign=middle;spacingTop=-1;spacingLeft=3;spacingRight=3;rotatable=0;labelPosition=right;points=[];portConstraint=eastwest;" parent="lI8CtXxW3s-L7TsafRq1-0" vertex="1"><mxGeometry y="93" width="160" height="8" as="geometry"/></mxCell><mxCell id="lI8CtXxW3s-L7TsafRq1-3" value=" " style="text;strokeColor=none;fillColor=#ffffff;align=left;verticalAlign=top;spacingLeft=4;spacingRight=4;overflow=hidden;rotatable=0;points=[[0,0.5],[1,0.5]];portConstraint=eastwest;" parent="lI8CtXxW3s-L7TsafRq1-0" vertex="1"><mxGeometry y="101" width="160" height="24" as="geometry"/></mxCell><mxCell id="AfYDgv51XlKC_8JGlRU4-168" value="CustomRiskScore" style="swimlane;fontStyle=1;align=center;verticalAlign=top;childLayout=stackLayout;horizontal=1;startSize=26;horizontalStack=0;resizeParent=1;resizeParentMax=0;resizeLast=0;collapsible=1;marginBottom=0;fillColor=#ffffff;" parent="AfYDgv51XlKC_8JGlRU4-1" vertex="1"><mxGeometry x="875" y="439" width="303" height="92" as="geometry"/></mxCell><mxCell id="AfYDgv51XlKC_8JGlRU4-169" value=" " style="text;strokeColor=none;fillColor=#ffffff;align=left;verticalAlign=top;spacingLeft=4;spacingRight=4;overflow=hidden;rotatable=0;points=[[0,0.5],[1,0.5]];portConstraint=eastwest;" parent="AfYDgv51XlKC_8JGlRU4-168" vertex="1"><mxGeometry y="26" width="303" height="16" as="geometry"/></mxCell><mxCell id="AfYDgv51XlKC_8JGlRU4-170" value="" style="line;strokeWidth=1;fillColor=#ffffff;align=left;verticalAlign=middle;spacingTop=-1;spacingLeft=3;spacingRight=3;rotatable=0;labelPosition=right;points=[];portConstraint=eastwest;" parent="AfYDgv51XlKC_8JGlRU4-168" vertex="1"><mxGeometry y="42" width="303" height="8" as="geometry"/></mxCell><mxCell id="AfYDgv51XlKC_8JGlRU4-171" value="recomputeTransmissionRisks(List(ExposureInformation))&#10;computeEncounterBasedRiskScore()" style="text;strokeColor=none;fillColor=#ffffff;align=left;verticalAlign=top;spacingLeft=4;spacingRight=4;overflow=hidden;rotatable=0;points=[[0,0.5],[1,0.5]];portConstraint=eastwest;" parent="AfYDgv51XlKC_8JGlRU4-168" vertex="1"><mxGeometry y="50" width="303" height="42" as="geometry"/></mxCell><mxCell id="erfOJKVv9HRhBLi41vR6-0" value="ExposureConfiguration" style="swimlane;fontStyle=1;align=center;verticalAlign=top;childLayout=stackLayout;horizontal=1;startSize=26;horizontalStack=0;resizeParent=1;resizeParentMax=0;resizeLast=0;collapsible=1;marginBottom=0;fillColor=#dae8fc;strokeColor=#6c8ebf;" parent="AfYDgv51XlKC_8JGlRU4-1" vertex="1"><mxGeometry x="661.5" y="439" width="187" height="143" as="geometry"/></mxCell><mxCell id="erfOJKVv9HRhBLi41vR6-1" value="minimumRiskScore&#10;attenuationScores:[]&#10;daysSinceLstExposureScores:[]&#10;durationScores:[]&#10;transmissionRiskScores:[]&#10;durationAtAttenuationThresholds" style="text;strokeColor=none;fillColor=#ffffff;align=left;verticalAlign=top;spacingLeft=4;spacingRight=4;overflow=hidden;rotatable=0;points=[[0,0.5],[1,0.5]];portConstraint=eastwest;" parent="erfOJKVv9HRhBLi41vR6-0" vertex="1"><mxGeometry y="26" width="187" height="92" as="geometry"/></mxCell><mxCell id="erfOJKVv9HRhBLi41vR6-2" value="" style="line;strokeWidth=1;fillColor=#ffffff;align=left;verticalAlign=middle;spacingTop=-1;spacingLeft=3;spacingRight=3;rotatable=0;labelPosition=right;points=[];portConstraint=eastwest;" parent="erfOJKVv9HRhBLi41vR6-0" vertex="1"><mxGeometry y="118" width="187" height="8" as="geometry"/></mxCell><mxCell id="erfOJKVv9HRhBLi41vR6-3" value="" style="text;strokeColor=none;fillColor=#ffffff;align=left;verticalAlign=top;spacingLeft=4;spacingRight=4;overflow=hidden;rotatable=0;points=[[0,0.5],[1,0.5]];portConstraint=eastwest;" parent="erfOJKVv9HRhBLi41vR6-0" vertex="1"><mxGeometry y="126" width="187" height="17" as="geometry"/></mxCell><mxCell id="AfYDgv51XlKC_8JGlRU4-33" value="User" style="swimlane;fontStyle=1;align=center;verticalAlign=top;childLayout=stackLayout;horizontal=1;startSize=26;horizontalStack=0;resizeParent=1;resizeParentMax=0;resizeLast=0;collapsible=1;marginBottom=0;fillColor=#ffffff;" parent="AfYDgv51XlKC_8JGlRU4-1" vertex="1"><mxGeometry x="-488" y="91" width="123" height="70" as="geometry"/></mxCell><mxCell id="AfYDgv51XlKC_8JGlRU4-34" value="" style="text;strokeColor=none;fillColor=#ffffff;align=left;verticalAlign=top;spacingLeft=4;spacingRight=4;overflow=hidden;rotatable=0;points=[[0,0.5],[1,0.5]];portConstraint=eastwest;" parent="AfYDgv51XlKC_8JGlRU4-33" vertex="1"><mxGeometry y="26" width="123" height="24" as="geometry"/></mxCell><mxCell id="AfYDgv51XlKC_8JGlRU4-35" value="" style="line;strokeWidth=1;fillColor=#ffffff;align=left;verticalAlign=middle;spacingTop=-1;spacingLeft=3;spacingRight=3;rotatable=0;labelPosition=right;points=[];portConstraint=eastwest;" parent="AfYDgv51XlKC_8JGlRU4-33" vertex="1"><mxGeometry y="50" width="123" height="8" as="geometry"/></mxCell><mxCell id="AfYDgv51XlKC_8JGlRU4-36" value=" " style="text;strokeColor=none;fillColor=#ffffff;align=left;verticalAlign=top;spacingLeft=4;spacingRight=4;overflow=hidden;rotatable=0;points=[[0,0.5],[1,0.5]];portConstraint=eastwest;" parent="AfYDgv51XlKC_8JGlRU4-33" vertex="1"><mxGeometry y="58" width="123" height="12" as="geometry"/></mxCell></root></mxGraphModel></diagram></mxfile>